<svg xmlns="http://www.w3.org/2000/svg" width="256" height="256" viewBox="0 0 100 100">
    <rect width="100" height="100" rx="20" fill="#2d5402"></rect>
    <path
        d="M65.34 87.34L65.34 87.34L34.77 87.34Q33.12 87.34 33.12 85.69L33.12 85.69L33.12 80.30Q33.12 78.66 34.77 78.66L34.77 78.66L43.78 78.66L43.78 21.45L28.94 21.45L29.48 30.03Q29.60 31.68 27.95 31.68L27.95 31.68L21.24 31.68Q19.59 31.68 19.59 30.03L19.59 30.03L19.59 14.30Q19.59 12.66 21.24 12.66L21.24 12.66L78.77 12.66Q80.42 12.66 80.42 14.30L80.42 14.30L80.42 30.03Q80.42 31.68 78.77 31.68L78.77 31.68L72.06 31.68Q70.41 31.68 70.52 30.03L70.52 30.03L71.06 21.45L56.22 21.45L56.22 78.66L65.34 78.66Q67.00 78.66 67.00 80.30L67.00 80.30L67.00 85.69Q67.00 87.34 65.34 87.34Z"
        fill="#fff"></path>
</svg>