<svg width="50" height="50" viewBox="0 0 50 50" fill="none" xmlns="http://www.w3.org/2000/svg">
<rect width="50" height="50" rx="2" fill="#F2B632"/>
<path d="M19.816 17.272V34H16.216V17.272H19.816ZM25.696 17.176V18.184H10.336V17.176H25.696ZM25.696 18.112V20.944L25.456 20.92V20.656C25.456 19.904 25.232 19.312 24.784 18.88C24.352 18.432 23.76 18.2 23.008 18.184V18.112H25.696ZM25.696 16.744V17.44L22.768 17.176C23.12 17.176 23.488 17.152 23.872 17.104C24.272 17.056 24.64 17 24.976 16.936C25.312 16.872 25.552 16.808 25.696 16.744ZM16.288 32.248V34H14.368V33.76C14.368 33.76 14.416 33.76 14.512 33.76C14.624 33.76 14.68 33.76 14.68 33.76C15.096 33.76 15.448 33.616 15.736 33.328C16.04 33.024 16.2 32.664 16.216 32.248H16.288ZM19.744 32.248H19.816C19.832 32.664 19.984 33.024 20.272 33.328C20.576 33.616 20.936 33.76 21.352 33.76C21.352 33.76 21.4 33.76 21.496 33.76C21.608 33.76 21.664 33.76 21.664 33.76V34H19.744V32.248ZM13 18.112V18.184C12.264 18.2 11.672 18.432 11.224 18.88C10.792 19.312 10.576 19.904 10.576 20.656V20.92L10.336 20.944V18.112H13ZM10.336 16.744C10.496 16.808 10.736 16.872 11.056 16.936C11.392 17 11.76 17.056 12.16 17.104C12.56 17.152 12.928 17.176 13.264 17.176L10.336 17.44V16.744ZM32.6558 16.864C32.9758 16.864 33.3678 16.88 33.8318 16.912C34.3118 16.944 34.7998 16.992 35.2958 17.056C35.8078 17.104 36.2478 17.16 36.6158 17.224C36.9998 17.272 37.2638 17.328 37.4078 17.392L37.1198 20.632H36.8798C36.8798 19.8 36.5678 19.136 35.9438 18.64C35.3358 18.128 34.5198 17.872 33.4958 17.872C32.5678 17.872 31.8158 18.096 31.2398 18.544C30.6798 18.992 30.3838 19.536 30.3518 20.176C30.3358 20.656 30.4878 21.072 30.8078 21.424C31.1278 21.776 31.5358 22.104 32.0318 22.408L36.6158 25.384C37.3518 25.8 37.9038 26.344 38.2718 27.016C38.6558 27.688 38.8238 28.472 38.7758 29.368C38.6958 30.936 38.0958 32.16 36.9758 33.04C35.8558 33.904 34.3358 34.336 32.4158 34.336C31.7118 34.336 31.0238 34.272 30.3518 34.144C29.6958 34.032 29.1118 33.872 28.5998 33.664C28.0878 33.44 27.6798 33.176 27.3758 32.872C27.2478 32.52 27.1918 32.096 27.2078 31.6C27.2238 31.104 27.2958 30.6 27.4238 30.088C27.5678 29.576 27.7438 29.152 27.9518 28.816H28.1678C28.1038 29.632 28.2478 30.392 28.5998 31.096C28.9678 31.784 29.4958 32.336 30.1838 32.752C30.8878 33.152 31.7198 33.344 32.6798 33.328C33.7358 33.312 34.5518 33.048 35.1278 32.536C35.7038 32.008 35.9918 31.376 35.9918 30.64C35.9918 30.144 35.8398 29.696 35.5358 29.296C35.2478 28.896 34.7678 28.512 34.0958 28.144L29.8958 25.36C29.0478 24.88 28.4318 24.264 28.0478 23.512C27.6638 22.76 27.5118 21.944 27.5918 21.064C27.6718 20.232 27.9198 19.504 28.3358 18.88C28.7518 18.24 29.3198 17.744 30.0398 17.392C30.7758 17.04 31.6478 16.864 32.6558 16.864ZM37.4318 17.104L37.3838 17.608H34.5518V17.104H37.4318Z" fill="white"/>
</svg>
