<svg width="50" height="50" viewBox="0 0 50 50" fill="none" xmlns="http://www.w3.org/2000/svg">
<rect width="50" height="50" rx="2" fill="#3D262A"/>
<path d="M18.088 14.696V37H13.288V14.696H18.088ZM25.928 14.568V15.912H5.448V14.568H25.928ZM25.928 15.816V19.592L25.608 19.56V19.208C25.608 18.2053 25.3093 17.416 24.712 16.84C24.136 16.2427 23.3467 15.9333 22.344 15.912V15.816H25.928ZM25.928 13.992V14.92L22.024 14.568C22.4933 14.568 22.984 14.536 23.496 14.472C24.0293 14.408 24.52 14.3333 24.968 14.248C25.416 14.1627 25.736 14.0773 25.928 13.992ZM13.384 34.664V37H10.824V36.68C10.824 36.68 10.888 36.68 11.016 36.68C11.1653 36.68 11.24 36.68 11.24 36.68C11.7947 36.68 12.264 36.488 12.648 36.104C13.0533 35.6987 13.2667 35.2187 13.288 34.664H13.384ZM17.992 34.664H18.088C18.1093 35.2187 18.312 35.6987 18.696 36.104C19.1013 36.488 19.5813 36.68 20.136 36.68C20.136 36.68 20.2 36.68 20.328 36.68C20.4773 36.68 20.552 36.68 20.552 36.68V37H17.992V34.664ZM9 15.816V15.912C8.01867 15.9333 7.22933 16.2427 6.632 16.84C6.056 17.416 5.768 18.2053 5.768 19.208V19.56L5.448 19.592V15.816H9ZM5.448 13.992C5.66133 14.0773 5.98133 14.1627 6.408 14.248C6.856 14.3333 7.34667 14.408 7.88 14.472C8.41333 14.536 8.904 14.568 9.352 14.568L5.448 14.92V13.992ZM35.2078 14.152C35.6344 14.152 36.1571 14.1733 36.7758 14.216C37.4158 14.2587 38.0664 14.3227 38.7278 14.408C39.4104 14.472 39.9971 14.5467 40.4878 14.632C40.9998 14.696 41.3518 14.7707 41.5438 14.856L41.1598 19.176H40.8398C40.8398 18.0667 40.4238 17.1813 39.5918 16.52C38.7811 15.8373 37.6931 15.496 36.3278 15.496C35.0904 15.496 34.0878 15.7947 33.3198 16.392C32.5731 16.9893 32.1784 17.7147 32.1358 18.568C32.1144 19.208 32.3171 19.7627 32.7438 20.232C33.1704 20.7013 33.7144 21.1387 34.3758 21.544L40.4878 25.512C41.4691 26.0667 42.2051 26.792 42.6958 27.688C43.2078 28.584 43.4318 29.6293 43.3678 30.824C43.2611 32.9147 42.4611 34.5467 40.9678 35.72C39.4744 36.872 37.4478 37.448 34.8878 37.448C33.9491 37.448 33.0318 37.3627 32.1358 37.192C31.2611 37.0427 30.4824 36.8293 29.7998 36.552C29.1171 36.2533 28.5731 35.9013 28.1678 35.496C27.9971 35.0267 27.9224 34.4613 27.9438 33.8C27.9651 33.1387 28.0611 32.4667 28.2318 31.784C28.4238 31.1013 28.6584 30.536 28.9358 30.088H29.2238C29.1384 31.176 29.3304 32.1893 29.7998 33.128C30.2904 34.0453 30.9944 34.7813 31.9118 35.336C32.8504 35.8693 33.9598 36.1253 35.2398 36.104C36.6478 36.0827 37.7358 35.7307 38.5038 35.048C39.2718 34.344 39.6558 33.5013 39.6558 32.52C39.6558 31.8587 39.4531 31.2613 39.0478 30.728C38.6638 30.1947 38.0238 29.6827 37.1278 29.192L31.5278 25.48C30.3971 24.84 29.5758 24.0187 29.0638 23.016C28.5518 22.0133 28.3491 20.9253 28.4557 19.752C28.5624 18.6427 28.8931 17.672 29.4478 16.84C30.0024 15.9867 30.7598 15.3253 31.7198 14.856C32.7011 14.3867 33.8638 14.152 35.2078 14.152ZM41.5758 14.472L41.5118 15.144H37.7358V14.472H41.5758Z" fill="#F2B632"/>
</svg>
